<?xml version="1.0" encoding="UTF-8"?>
<svg width="20px" height="20px" viewBox="0 0 20 20" version="1.1" xmlns="http://www.w3.org/2000/svg" xmlns:xlink="http://www.w3.org/1999/xlink">
    <!-- Generator: Sketch 59 (86127) - https://sketch.com -->
    <title>index/04@2x</title>
    <desc>Created with Sketch.</desc>
    <g id="index/04" stroke="none" stroke-width="1" fill="none" fill-rule="evenodd">
        <rect id="矩形" x="0" y="0" width="20" height="20"></rect>
        <circle id="椭圆形" fill="#EB755F" opacity="0.1" cx="10" cy="10" r="10"></circle>
        <path d="M14.8322993,12.4015639 L14.8366782,12.4059597 L14.8485598,12.4180215 C15.0606603,12.6333391 15.0620467,12.9786107 14.8516822,13.1956247 L12.1332351,16 L11.2963374,16 L11.2963374,15.1767565 L14.0483974,12.4044385 C14.2640722,12.1871761 14.615037,12.1858891 14.8322993,12.4015639 Z M11.193,5.16658476 L11.1936971,7.44519789 C11.1936971,7.75243991 11.4427659,8.00150878 11.750008,8.00150878 L11.750008,8.00150878 L13.9,8.00058476 L13.9,11.3499967 L9.977,15.3319967 L6.11262177,15.3324778 C5.49813773,15.3324778 5,14.83434 5,14.219856 L5,6.27961852 C5,5.66513448 5.49813773,5.16699675 6.11262177,5.16699675 L11.193,5.16658476 Z M11.1905065,10.131796 L6.59784594,10.131796 C6.32986403,10.131796 6.11262177,10.3490383 6.11262177,10.6170202 C6.11262177,10.8552263 6.28426998,11.0533418 6.51062628,11.0944267 L6.59784594,11.1022443 L11.1905065,11.1022443 C11.4584884,11.1022443 11.6757306,10.8850021 11.6757306,10.6170202 C11.6757306,10.3490383 11.4584884,10.131796 11.1905065,10.131796 Z M8.96526292,7.99074147 L6.59784594,7.99074147 C6.32986403,7.99074147 6.11262177,8.20798373 6.11262177,8.47596563 C6.11262177,8.71417177 6.28426998,8.91228733 6.51062628,8.95337219 L6.59784594,8.9611898 L8.96526292,8.9611898 C9.23324483,8.9611898 9.45048709,8.74394754 9.45048709,8.47596563 C9.45048709,8.20798373 9.23324483,7.99074147 8.96526292,7.99074147 Z M11.9538861,5.10058476 C12.0283832,5.10058476 12.099767,5.13046812 12.1520465,5.18354056 L13.9910025,7.05038963 C14.0988083,7.15983061 14.0974827,7.3359439 13.9880417,7.44374969 C13.936003,7.49501093 13.8658883,7.52374472 13.7928421,7.52374472 L11.9538861,7.52374472 C11.8002651,7.52374472 11.6757306,7.39921029 11.6757306,7.24558928 L11.6757306,5.3787402 C11.6757306,5.22511919 11.8002651,5.10058476 11.9538861,5.10058476 Z" id="形状结合" fill="#EB755F"></path>
    </g>
</svg>