<?xml version="1.0" encoding="UTF-8"?>
<svg width="20px" height="20px" viewBox="0 0 20 20" version="1.1" xmlns="http://www.w3.org/2000/svg" xmlns:xlink="http://www.w3.org/1999/xlink">
    <!-- Generator: Sketch 59 (86127) - https://sketch.com -->
    <title>index/03@2x</title>
    <desc>Created with Sketch.</desc>
    <g id="index/03" stroke="none" stroke-width="1" fill="none" fill-rule="evenodd">
        <rect id="矩形" x="0" y="0" width="20" height="20"></rect>
        <g id="二维码" fill="#F5A740">
            <circle id="椭圆形" opacity="0.1" cx="10" cy="10" r="10"></circle>
            <path d="M6.17672422,9.69989082 L8.7224258,9.69989082 C9.27471055,9.69989082 9.7224258,9.25217557 9.7224258,8.69989082 L9.7224258,6.15419998 C9.7224258,5.60191523 9.27471055,5.15419998 8.7224258,5.15419998 L6.17672422,5.15419998 C5.62443948,5.15419998 5.17672422,5.60191523 5.17672422,6.15419998 L5.17672422,8.69989082 C5.17672422,9.25217557 5.62443948,9.69989082 6.17672422,9.69989082 Z M6.31315231,6.29062806 L8.58599772,6.29062806 L8.58599772,8.56347348 L6.31315231,8.56347348 L6.31315231,6.29062806 Z M11.2906345,9.6999123 L13.8363361,9.6999123 C14.3886208,9.6999123 14.8363361,9.25219705 14.8363361,8.6999123 L14.8363361,6.15421072 C14.8363361,5.60192597 14.3886208,5.15421072 13.8363361,5.15421072 L11.2906345,5.15421072 C10.7383497,5.15421072 10.2906345,5.60192597 10.2906345,6.15421072 L10.2906345,8.6999123 C10.2906345,9.25219705 10.7383497,9.6999123 11.2906345,9.6999123 Z M11.4270518,8.56347348 L11.4270518,6.29062806 L13.6998972,6.29062806 L13.6998972,8.56347348 L11.4270518,8.56347348 Z M6.88135023,7.99526803 L8.01776757,7.99526803 L8.01776757,6.85883995 L6.88135023,6.85883995 L6.88135023,7.99526803 Z M6.17671348,14.813815 L8.72241506,14.813815 C9.27469981,14.813815 9.72241506,14.3660998 9.72241506,13.813815 L9.72241506,11.2681135 C9.72241506,10.7158287 9.27469981,10.2681135 8.72241506,10.2681135 L6.17671348,10.2681135 C5.62442873,10.2681135 5.17671348,10.7158287 5.17671348,11.2681135 L5.17671348,13.813815 C5.17671348,14.3660998 5.62442873,14.813815 6.17671348,14.813815 Z M6.31314156,11.4045415 L8.58598698,11.4045415 L8.58598698,13.6773869 L6.31314156,13.6773869 L6.31314156,11.4045415 Z M11.9952605,6.85883995 L11.9952605,7.99525729 L13.1316886,7.99525729 L13.1316886,6.85883995 L11.9952605,6.85883995 Z M11.4270411,14.813815 L11.4270411,13.6773977 L10.2906237,13.6773977 L10.2906237,14.813815 L11.4270411,14.813815 Z M11.4270411,11.4045415 L11.4270411,13.6773869 L12.5634584,13.6773869 L12.5634584,11.4045415 L11.4270411,11.4045415 Z M12.5634691,13.6773977 L12.5634691,14.813815 L13.8363146,14.813815 C14.3885993,14.813815 14.8363146,14.3660998 14.8363146,13.813815 L14.8363146,12.5409589 L14.8363146,12.5409589 L13.6998972,12.5409589 L13.6998972,13.6773869 L12.5634691,13.6773977 Z M14.8363038,11.4045415 L14.8363038,10.2681242 L13.6998865,10.2681242 L13.6998865,11.4045415 L14.8363038,11.4045415 Z M10.2906237,11.4045415 L11.4270411,11.4045415 L11.4270411,10.2681242 L10.2906237,10.2681242 L10.2906237,11.4045415 Z M6.88135023,13.109189 L8.01776757,13.109189 L8.01776757,11.9727717 L6.88135023,11.9727717 L6.88135023,13.109189 Z" id="形状" fill-rule="nonzero"></path>
        </g>
    </g>
</svg>