<?xml version="1.0" encoding="UTF-8"?>
<svg width="20px" height="20px" viewBox="0 0 20 20" version="1.1" xmlns="http://www.w3.org/2000/svg" xmlns:xlink="http://www.w3.org/1999/xlink">
    <!-- Generator: Sketch 59 (86127) - https://sketch.com -->
    <title>index/01@2x</title>
    <desc>Created with Sketch.</desc>
    <g id="index/01" stroke="none" stroke-width="1" fill="none" fill-rule="evenodd">
        <g id="编组">
            <rect id="矩形" x="0" y="0" width="20" height="20"></rect>
            <circle id="椭圆形" fill="#0294FF" opacity="0.1" cx="10" cy="10" r="10"></circle>
            <path d="M9.59538272,9.39610158 L9.59538272,5.99647644 C9.59538272,5.73914017 9.36809074,5.26870842 8.81729209,5.26870842 C8.38989987,5.26870842 8.0398988,5.59461906 8.0398988,5.99647644 L8.03432109,11.9053189 L7.38939857,11.0389284 C7.11539394,10.6732007 6.55971383,10.6274849 6.22295996,10.9430724 C5.96220253,11.1893488 5.92594646,11.5757226 6.13650547,11.8603411 L7.80911601,14.7765822 C7.95343927,14.9734553 8.19258375,15 8.44706626,15 L12.1924976,15 C12.931544,15 13.5674046,14.6018288 13.7124265,13.9219878 L13.9696984,11.3043751 C14.123086,10.5854545 13.6810519,9.91741214 12.9399134,9.68514561 L9.59538272,9.39610158 Z" id="路径" fill="#0294FF" fill-rule="nonzero"></path>
        </g>
    </g>
</svg>