<?xml version="1.0" encoding="UTF-8"?>
<svg width="20px" height="20px" viewBox="0 0 20 20" version="1.1" xmlns="http://www.w3.org/2000/svg" xmlns:xlink="http://www.w3.org/1999/xlink">
    <!-- Generator: Sketch 59 (86127) - https://sketch.com -->
    <title>index/02@2x</title>
    <desc>Created with Sketch.</desc>
    <g id="index/02" stroke="none" stroke-width="1" fill="none" fill-rule="evenodd">
        <rect id="矩形" x="0" y="0" width="20" height="20"></rect>
        <circle id="椭圆形" fill="#15B37F" opacity="0.1" cx="10" cy="10" r="10"></circle>
        <rect id="矩形" fill="#15B37F" x="4" y="16" width="12" height="1" rx="0.5"></rect>
        <path d="M13.1765044,12.3670182 C13.9067609,12.3670182 14.4982419,12.9581244 14.5,13.6834637 C14.5,14.4088031 13.9067609,15 13.1765044,15 C12.4444222,15 11.8529412,14.4088031 11.8529412,13.6834637 C11.8529412,12.9581244 12.4461802,12.3670182 13.1765044,12.3670182 Z M7.61673482,12.3670182 C8.34648415,12.3670182 8.94117647,12.9581244 8.94117647,13.6834637 C8.94117647,14.4088031 8.34648415,15 7.61673482,15 C6.88511595,15 6.29411765,14.4088031 6.29411765,13.6834637 C6.29411765,12.9581244 6.88687286,12.3670182 7.61673482,12.3670182 Z M6.17379844,6.0000368 L12.0777799,6.06102756 C12.4099498,6.0644569 12.6832446,6.30188662 12.7301894,6.60996112 L12.7373148,6.70433945 L12.7417528,6.77865919 C12.7760474,7.06359701 13.0053193,7.29114571 13.297448,7.33380607 L13.396971,7.34100357 L13.8980009,7.34100357 C14.1043417,7.34100357 14.2969452,7.43301838 14.4221513,7.5867799 L14.4788895,7.66866609 L15.914222,10.1282701 C15.9517118,10.1925131 15.9773388,10.2622507 15.9902579,10.3343729 L16,10.4439563 L16,12.3644739 C16,12.6798788 15.7644006,12.9436376 15.4516022,12.9976953 L15.3556051,13.0074635 L14.8037866,13.0252636 C14.506804,12.3167345 13.9815039,11.8796466 13.1611002,11.8796466 C12.3992969,11.8796466 11.8279563,12.2565234 11.5109014,12.876211 L11.4422779,13.0234651 L9.37582875,13.0234651 C9.07877825,12.3094494 8.4376101,11.8669431 7.60996188,11.8669431 C6.82032508,11.8669431 6.13752322,12.3276851 5.81871633,12.9943016 C5.65573264,12.8974933 5.53799063,12.7337803 5.50767625,12.5399076 L5.5,12.4406281 L5.5,11.249 L8.25,11.25 C8.62969577,11.25 8.94349096,10.9678461 8.99315338,10.6017706 L9,10.5 C9,10.1203042 8.71784612,9.80650904 8.35177056,9.75684662 L8.25,9.75 L5.5,9.749 L5.5,8.749 L8.25,8.75 C8.62969577,8.75 8.94349096,8.46784612 8.99315338,8.10177056 L9,8 C9,7.62030423 8.71784612,7.30650904 8.35177056,7.25684662 L8.25,7.25 L5.5,7.249 L5.5,6.64338629 L5.50535476,6.56152651 C5.54740954,6.24198017 5.83192744,5.99654489 6.17379844,6.0000368 Z M8.25,10 C8.52614237,10 8.75,10.2238576 8.75,10.5 C8.75,10.7761424 8.52614237,11 8.25,11 L4.25,11 C3.97385763,11 3.75,10.7761424 3.75,10.5 C3.75,10.2238576 3.97385763,10 4.25,10 L8.25,10 Z M13.4550278,8.02259812 L12.7156863,8.02259812 C12.5546032,8.02259812 12.4202072,8.13685878 12.3891251,8.28875316 L12.3823529,8.35593145 L12.3823529,9.53235207 C12.3823529,9.69343512 12.4966136,9.82783117 12.648508,9.85891326 L12.7156863,9.86568541 L13.7927906,9.86568541 C13.8239068,9.86568541 13.8548698,9.86132851 13.8847778,9.85274162 C14.0396058,9.80828888 14.1372515,9.66137696 14.1252096,9.50680339 L14.1131801,9.44036486 L13.7754174,8.26394424 C13.7343909,8.12104984 13.6036952,8.02259812 13.4550278,8.02259812 Z M8.25,7.5 C8.52614237,7.5 8.75,7.72385763 8.75,8 C8.75,8.27614237 8.52614237,8.5 8.25,8.5 L5.25,8.5 C4.97385763,8.5 4.75,8.27614237 4.75,8 C4.75,7.72385763 4.97385763,7.5 5.25,7.5 L8.25,7.5 Z" id="形状结合备份" fill="#15B37F"></path>
    </g>
</svg>